# xmcd
#
# Track frame offsets:
#	150
#	15120
#	29553
#	43558
#	59425
#	72038
#	83728
#	93095
#	108263
#	120825
#
# Disc length: 1756 seconds
#
# Revision: 1
# Processed by: cddbd v1.4PL0 Copyright (c) Steve Scherf et al.
# Submitted via: EasyCDDAExtractor 5.1.0
#
DISCID=6906da0a
DTITLE=Ernest Tubb and Friends - Disk 5 of 5 - Soldiers Last Letter
DYEAR=1992
DGENRE=Country
TTITLE0=Rainbow At Midnight
TTITLE1=It'S Been So Long, Darlin'
TTITLE2=Our Baby'S Book
TTITLE3=Soldier'S Last Letter
TTITLE4=Sweet Thang
TTITLE5=(When You Feel Like You'Re In Love) Don'T Just Stand There
TTITLE6=Have You Ever Been Lonely
TTITLE7=I'm With A Crowd But So Alone
TTITLE8=Drivin' Nails In My Coffin
TTITLE9=I'Ve Got A Good Mind To Love Her Anyway
EXTD=hale
EXTT0=
EXTT1=
EXTT2=
EXTT3=
EXTT4=
EXTT5=
EXTT6=
EXTT7=
EXTT8=
EXTT9=
PLAYORDER=
